<?xml version="1.0" encoding="UTF-8" standalone="no"?>
<svg
   xmlns:dc="http://purl.org/dc/elements/1.1/"
   xmlns:cc="http://creativecommons.org/ns#"
   xmlns:rdf="http://www.w3.org/1999/02/22-rdf-syntax-ns#"
   xmlns:svg="http://www.w3.org/2000/svg"
   xmlns="http://www.w3.org/2000/svg"
   xmlns:sodipodi="http://sodipodi.sourceforge.net/DTD/sodipodi-0.dtd"
   xmlns:inkscape="http://www.inkscape.org/namespaces/inkscape"
   version="1.1"
   width="24"
   height="24"
   viewBox="0 0 24 24"
   id="svg4"
   sodipodi:docname="file.svg"
   inkscape:version="0.92.3 (2405546, 2018-03-11)">
  <metadata
     id="metadata10">
    <rdf:RDF>
      <cc:Work
         rdf:about="">
        <dc:format>image/svg+xml</dc:format>
        <dc:type
           rdf:resource="http://purl.org/dc/dcmitype/StillImage" />
      </cc:Work>
    </rdf:RDF>
  </metadata>
  <defs
     id="defs8" />
  <sodipodi:namedview
     pagecolor="#ffffff"
     bordercolor="#666666"
     borderopacity="1"
     objecttolerance="10"
     gridtolerance="10"
     guidetolerance="10"
     inkscape:pageopacity="0"
     inkscape:pageshadow="2"
     inkscape:window-width="1920"
     inkscape:window-height="1015"
     id="namedview6"
     showgrid="false"
     inkscape:zoom="19.666667"
     inkscape:cx="-3.3560924"
     inkscape:cy="15.204506"
     inkscape:window-x="0"
     inkscape:window-y="0"
     inkscape:window-maximized="1"
     inkscape:current-layer="svg4" />
  <path
     d="M13,9V3.5L18.5,9M6,2C4.89,2 4,2.89 4,4V20C4,21.1 4.9,22 6,22H18C19.1,22 20,21.1 20,20V8L14,2H6Z"
     id="path2"
     style="fill:#03a9f4;fill-opacity:1" />
  <path
     style="fill:#03a9f4;fill-opacity:1;stroke-width:0.10169491"
     d="M 5.1054582,21.71791 C 4.6212206,21.462168 4.2549205,20.9763 4.1118727,20.4 4.0316382,20.076758 4.0069952,17.523457 4.0279544,11.705085 4.0547954,4.2539019 4.0737445,3.4386816 4.2265143,3.1627119 4.4496894,2.7595591 4.9041853,2.3371996 5.2591627,2.2030798 5.4447385,2.1329644 7.0368787,2.0949153 9.7852328,2.0949153 h 4.2397882 l 2.973931,2.9752119 2.973929,2.9752121 -6.1e-4,6.0502117 c -4.07e-4,3.84807 -0.0388,6.187867 -0.105603,6.42841 -0.135427,0.487626 -0.529516,0.951686 -1.021214,1.202532 -0.375248,0.191437 -0.634298,0.198762 -6.877039,0.194436 -6.2332372,-0.0043 -6.5018121,-0.01226 -6.8629995,-0.203019 z M 15.854237,6.2644068 C 14.344845,4.7542373 13.075247,3.5186441 13.03291,3.5186441 c -0.04234,0 -0.07698,1.2355932 -0.07698,2.7457627 v 2.7457627 h 2.821327 2.821328 z"
     id="path4520"
     inkscape:connector-curvature="0" />
  <path
     style="fill:#03a9f4;fill-opacity:1;stroke-width:0.03595458"
     d="m 5.4456094,2.0969533 c 0.1484284,-0.056161 0.5076496,-0.062043 4.3479761,-0.071192 2.5261995,-0.00602 4.1993475,0.00319 4.2193845,0.023231 0.0203,0.020303 -1.592246,0.041229 -4.1502255,0.053858 -2.3008866,0.011359 -4.2724179,0.028454 -4.3811805,0.037988 l -0.1977502,0.017334 z"
     id="path4522"
     inkscape:connector-curvature="0" />
  <path
     style="fill:#03a9f4;fill-opacity:1;stroke-width:0.01271186"
     d=""
     id="path4524"
     inkscape:connector-curvature="0" />
</svg>
